<?xml version="1.0" encoding="utf-8"?>
<!-- Generator: Adobe Illustrator 18.1.0, SVG Export Plug-In . SVG Version: 6.00 Build 0)  -->
<!DOCTYPE svg PUBLIC "-//W3C//DTD SVG 1.1//EN" "http://www.w3.org/Graphics/SVG/1.1/DTD/svg11.dtd">
<svg version="1.1" id="bell_copy" xmlns="http://www.w3.org/2000/svg" xmlns:xlink="http://www.w3.org/1999/xlink" x="0px" y="0px"
	 viewBox="0 0 100 100" enable-background="new 0 0 100 100" xml:space="preserve">
<g>
	<path fill="#0D9C8E" d="M90.8,70.5c-3-3.6-6-8.4-9-17.4c-3-9.1-1.9-25-6.1-34.2c-4.5-10.1-12-13-19.3-13.8c-0.9-3-3.6-4.8-6.7-4.8
		c-3.1,0-5.8,1.8-6.7,4.8C35.6,6,28.3,9,23.8,18.9c-4.2,9.3-3.1,25.1-6.1,34.2c-3,9-5.9,13.8-8.9,17.4c-2.7,3.2-4.1,6.8-4.1,9
		c0,3,0,3.4,0,3.4h42h5.7h42.9c0,0,0-0.4,0-3.4C95.3,77.3,93.4,73.7,90.8,70.5z"/>
	<path fill="#0D9C8E" d="M49.8,99.7c6.1,0,11.1-5.4,11.1-11.1H38.8C38.8,94.3,43.7,99.7,49.8,99.7z"/>
</g>
</svg>
