<?xml version="1.0" encoding="utf-8"?>
<!-- Generator: Adobe Illustrator 18.1.0, SVG Export Plug-In . SVG Version: 6.00 Build 0)  -->
<!DOCTYPE svg PUBLIC "-//W3C//DTD SVG 1.1//EN" "http://www.w3.org/Graphics/SVG/1.1/DTD/svg11.dtd">
<svg version="1.1" id="Layer_1" xmlns="http://www.w3.org/2000/svg" xmlns:xlink="http://www.w3.org/1999/xlink" x="0px" y="0px"
	 viewBox="0 0 300 100" enable-background="new 0 0 300 100" xml:space="preserve">
<g>
	<polygon fill="#BBBBBB" points="9.8,0 90.2,0 90.2,99.9 50,74.8 9.8,99.9 	"/>
	<polygon fill="#FFFFFF" points="69,36.1 54,36.1 54,21.1 46,21.1 46,36.1 31,36.1 31,44.1 46,44.1 46,59 54,59 54,44.1 69,44.1 	
		"/>
</g>
<g>
	<polygon fill="#A2A2A3" points="109.8,0 190.2,0 190.2,99.9 150,74.8 109.8,99.9 	"/>
	<polygon fill="#FFFFFF" points="169,36.1 154,36.1 154,21.1 146,21.1 146,36.1 131,36.1 131,44.1 146,44.1 146,59 154,59 154,44.1 
		169,44.1 	"/>
</g>
<g>
	<polygon fill="#FFB712" points="209.8,0 290.2,0 290.2,99.9 250,74.8 209.8,99.9 	"/>
	<g>
		<polygon fill="#FFFFFF" points="245.2,57.4 228.5,41.8 233.4,36.6 244.8,47.3 266.8,23.9 272,28.8 		"/>
	</g>
</g>
</svg>
