<?xml version="1.0" encoding="utf-8"?>
<!-- Generator: Adobe Illustrator 18.1.0, SVG Export Plug-In . SVG Version: 6.00 Build 0)  -->
<!DOCTYPE svg PUBLIC "-//W3C//DTD SVG 1.1//EN" "http://www.w3.org/Graphics/SVG/1.1/DTD/svg11.dtd">
<svg version="1.1" id="Layer_7" xmlns="http://www.w3.org/2000/svg" xmlns:xlink="http://www.w3.org/1999/xlink" x="0px" y="0px"
	 viewBox="0 0 100 100" enable-background="new 0 0 100 100" xml:space="preserve">
<g>
	<rect x="19.2" y="73.6" fill="#00B4B2" width="11.5" height="11.5"/>
	<rect x="44.2" y="73.6" fill="#00B4B2" width="11.5" height="11.5"/>
	<rect x="69.3" y="73.6" fill="#00B4B2" width="11.5" height="11.5"/>
	<rect x="19.2" y="53.2" fill="#00B4B2" width="11.5" height="11.5"/>
	<rect x="44.2" y="53.2" fill="#00B4B2" width="11.5" height="11.5"/>
	<rect x="69.3" y="53.2" fill="#00B4B2" width="11.5" height="11.5"/>
	<rect x="19.2" y="32.8" fill="#00B4B2" width="11.5" height="11.5"/>
	<rect x="44.2" y="32.8" fill="#00B4B2" width="11.5" height="11.5"/>
	<rect x="69.3" y="32.8" fill="#00B4B2" width="11.5" height="11.5"/>
	<g>
		<polygon fill="#00B4B2" points="80.9,8.9 80.9,22.3 94,22.3 94,92.8 6,92.8 6,22.3 19.1,22.3 19.1,8.9 0.1,8.9 0.1,98.8 
			99.9,98.8 99.9,8.9 		"/>
		<rect x="35.1" y="8.9" fill="#00B4B2" width="29.8" height="13.4"/>
	</g>
	<path fill="#00B4B2" d="M31,23.4h-7.7c-0.4,0-0.8-0.3-0.8-0.8V2c0-0.4,0.3-0.8,0.8-0.8l7.7,0c0.4,0,0.8,0.3,0.8,0.8l0,20.6
		C31.7,23.1,31.4,23.4,31,23.4z"/>
	<path fill="#00B4B2" d="M76.7,23.4H69c-0.4,0-0.8-0.3-0.8-0.8l0-20.6c0-0.4,0.3-0.8,0.8-0.8h7.7c0.4,0,0.8,0.3,0.8,0.8v20.6
		C77.5,23.1,77.1,23.4,76.7,23.4z"/>
</g>
</svg>
