<?xml version="1.0" encoding="utf-8"?>
<!-- Generator: Adobe Illustrator 18.1.0, SVG Export Plug-In . SVG Version: 6.00 Build 0)  -->
<!DOCTYPE svg PUBLIC "-//W3C//DTD SVG 1.1//EN" "http://www.w3.org/Graphics/SVG/1.1/DTD/svg11.dtd">
<svg version="1.1" id="camera_solo" xmlns="http://www.w3.org/2000/svg" xmlns:xlink="http://www.w3.org/1999/xlink" x="0px"
	 y="0px" viewBox="0 0 100 100" enable-background="new 0 0 100 100" xml:space="preserve">
<path fill="#FFFFFF" d="M87.8,34.6V37H71.3v-2.4H0.4v39.5c0,4.2,3.3,7.7,8,7.7h83.6c4.9,0,7.5-4.7,7.5-7.7V34.6H87.8z M50.2,72.9
	c-9.4,0-17-7.6-17-17s7.6-17,17-17s17,7.6,17,17S59.6,72.9,50.2,72.9z"/>
<path fill="#FFFFFF" d="M93.6,18.1H6.8c-3,0-6.4,3.2-6.4,6.2v5.6h70.9v-7.1h16.5v7.1h11.8v-5.6C99.6,21.3,96.7,18.1,93.6,18.1z"/>
</svg>
