<?xml version="1.0" encoding="utf-8"?>
<!-- Generator: Adobe Illustrator 18.1.0, SVG Export Plug-In . SVG Version: 6.00 Build 0)  -->
<!DOCTYPE svg PUBLIC "-//W3C//DTD SVG 1.1//EN" "http://www.w3.org/Graphics/SVG/1.1/DTD/svg11.dtd">
<svg version="1.1" id="fine_x5F_arts" xmlns="http://www.w3.org/2000/svg" xmlns:xlink="http://www.w3.org/1999/xlink" x="0px"
	 y="0px" viewBox="0 0 900 900" enable-background="new 0 0 900 900" xml:space="preserve">
<g>
	<circle fill-rule="evenodd" clip-rule="evenodd" fill="#FFFFFF" cx="450" cy="450" r="450"/>
	<g>
		<path fill-rule="evenodd" clip-rule="evenodd" fill="#BBBBBB" d="M450,0C201.5,0,0,201.5,0,450c0,202.2,133,373.3,317,430V768
			h106.8c-5.1-2-7.8-5.5-5.6-10c6.2-12.5,13.5-33.8,8.9-50.5s-28.6-57.8-29.2-92.7c-0.5-34.9-7.8-89.6-7.8-93.2
			c0,0-0.5,15.1-17.2,0.5c-16.7-14.6-35.4-32.3-37.5-71.9s-5.8-100.9-5.2-124c0.7-26,3.3-66.1,13.2-76c9.9-9.9,24.3-17.2,24.3-17.2
			c19.8-9.9,38.6-17.7,39.1-24.5c1.2-18.2-13.4-38.5-14.4-54.2c-0.8-11.5,1.7-30.3,7.3-41.1C409.1,95,440.4,89,458,98.1
			c17.2,8.9,21.2,28.1,20.7,39.1c-0.5,10.9-1.4,18.9-3.5,30.9c-2.1,12-1.2,17.5-8.5,21.2c-7.3,3.6-12.5,0.5-12.5,4.7
			s-1.6,10.4,3.6,10.4s17.2,3.6,21.4,1.6c4.2-2.1,6.2-8.3,15.1-7.3c8.9,1,18.7-0.5,22.4,7.3c2.1,4.6,0.8,13.3,3.6,18.7
			c2,3.8,10.3,12.5,13.5,18.7c7.8,15.1,31.2,40.1,38.5,53.1c7.3,13,4.7,37-4.2,40.1c-8.9,3.1-30.7-2.1-37-17.7
			c-6.2-15.6-24-40.6-24-40.6s-4.7,51.6-6.2,77.1c-1.6,25.5,3.6,50.5,5.7,72.4c2.1,21.9,15.1,55.2,18.7,93.7s13,48.4,24.5,84.4
			c11.5,35.9,16.1,99.5,25.5,118.2s33.3,29.3,33.9,41.3c0,0.9,0,1.7-0.1,2.7H649v85.5C798,780,899.8,626.9,899.8,450
			C899.8,201.5,698.5,0,450,0z"/>
		<path fill-rule="evenodd" clip-rule="evenodd" fill="#BBBBBB" d="M545.3,743.5c-2.1-12.5,2.1-24-10.4-58.8
			c-12.5-34.9-16.1-58.4-31.8-85.5c-15.6-27.1-43.2-75.5-51-90.6c-3.1-6-4.6-10.6-5.2-14c0,17.8,0.2,63.8,1,91.1
			c1,34.4,1.6,93.7,4.7,108.8c3.1,15.1,7.8,17.3,10.4,40.2c2.1,18.5,8.6,29.4,3.1,33.4h103.5C556.1,759,547,753.5,545.3,743.5z"/>
		<path fill-rule="evenodd" clip-rule="evenodd" fill="#BBBBBB" d="M394.8,358c2.1-18.7-18.7-41.1-18.7-41.1
			c-0.5,11.5-6.2,33.9-13,54.2c-6.8,20.3-1.6,40.1-1.6,65.1c0,25,17.2,34.9,17.2,34.9c-5.2-13-2.6-35.9,1-52.1
			S392.7,376.7,394.8,358z"/>
	</g>
</g>
</svg>
