<?xml version="1.0" encoding="utf-8"?>
<!-- Generator: Adobe Illustrator 18.1.0, SVG Export Plug-In . SVG Version: 6.00 Build 0)  -->
<!DOCTYPE svg PUBLIC "-//W3C//DTD SVG 1.1//EN" "http://www.w3.org/Graphics/SVG/1.1/DTD/svg11.dtd">
<svg version="1.1" id="location" xmlns="http://www.w3.org/2000/svg" xmlns:xlink="http://www.w3.org/1999/xlink" x="0px" y="0px"
	 viewBox="0 0 900 900" enable-background="new 0 0 900 900" xml:space="preserve">
<g>
	<path fill-rule="evenodd" clip-rule="evenodd" fill="#35A297" d="M713.7,425.6c-29,0-36,14-37.6,22.8c-0.1,2.2-0.2,4.4-0.3,6.7
		c0,0.3,0,0.4,0,0.4l-0.1,0c-0.9,17.9-2.6,35.9-5.4,52.9c8.1-2,18.3-4.5,27.3-6.7c13.8-3.4,32.3-10.5,42-24
		C755.1,456.5,739.8,425.6,713.7,425.6z"/>
	<path fill-rule="evenodd" clip-rule="evenodd" fill="#35A297" d="M450,0C201.5,0,0,201.5,0,450s201.5,450,450,450
		s450-201.5,450-450S698.5,0,450,0z M545.1,219.1c6-4.4,14.5-3.2,18.9,2.8c4.4,6,3.2,14.5-2.8,18.9c-0.4,0.3-23.3,18.2-18.5,35.7
		c2.7,9.7,8.1,14.7,14.3,20.5c7.7,7.2,17.4,16.1,18.8,33.1c1.1,13.9-4.6,26.9-16.2,36.5c-7.9,6.6-16,9.6-16.9,10
		c0,0-12.6,4.5-17.8-5.2c-7.1-13.3,8.6-20.3,8.6-20.3c0.6-0.2,16.4-6.3,15.3-18.8c-0.5-6.3-3.3-9.1-10.2-15.5
		c-7.3-6.7-17.2-15.9-22-33.1C506.7,248,543.5,220.2,545.1,219.1z M454.1,219.1c6-4.4,14.5-3.2,18.9,2.8c4.4,6,3.2,14.5-2.8,18.9
		c-0.4,0.3-23.3,18.2-18.5,35.7c2.7,9.7,8.1,14.7,14.3,20.5c7.7,7.2,17.4,16.1,18.8,33.1c1.1,13.9-4.6,26.9-16.2,36.5
		c-7.9,6.6-16,9.6-16.9,10c0,0-12.6,4.5-17.8-5.2c-7.1-13.3,8.6-20.3,8.6-20.3c0.6-0.2,16.4-6.3,15.3-18.8
		c-0.5-6.3-3.3-9.1-10.2-15.5c-7.3-6.7-17.2-15.9-22-33.1C415.7,248,452.5,220.2,454.1,219.1z M269.8,579.1
		c5.3,55.1,13.2,133.3-13.9,134c-28.7,0.7-25.1-69.1-24.3-129.9c0.7-60.7,2.1-135.6,2.1-161.1c0-29.2-51.4-65.7-55.3-115.4
		c-3.9-48.9,20.9-104.9,61.6-106.8c44.4-2.1,65.9,50.5,67.4,100c1.7,58.7-50,84-49.7,122.9C258,464.3,264.2,521.6,269.8,579.1z
		 M617.6,685c-27.3,0-190.5,0-218.1,0c-34.7,0-39.2-28-39.2-28H654C654,657,649.5,685,617.6,685z M722.2,524.5
		c-25.3,12-52.1,25.2-64.2,31.2c-2.6,6.5-5.6,12.5-9,17.9c-31.4,50-81.9,69.2-144.9,69.8v0c0,0-0.4,0-0.7,0c-0.3,0-0.6,0-1,0
		c-0.3,0-0.6,0-0.9,0c-0.2,0-0.5,0-0.5,0v0c-62-0.5-113.9-19.8-145.3-69.9c-24.6-39.2-28-109.4-28-166.4h173.3h3.1h168.5
		c8.7-5,24.2-11.1,45.4-11.7c35.4-1,58.1,29.9,57.3,57.3C774,490.8,753.1,509.8,722.2,524.5z"/>
</g>
</svg>
