<?xml version="1.0" encoding="utf-8"?>
<!-- Generator: Adobe Illustrator 18.1.0, SVG Export Plug-In . SVG Version: 6.00 Build 0)  -->
<!DOCTYPE svg PUBLIC "-//W3C//DTD SVG 1.1//EN" "http://www.w3.org/Graphics/SVG/1.1/DTD/svg11.dtd">
<svg version="1.1" id="literature" xmlns="http://www.w3.org/2000/svg" xmlns:xlink="http://www.w3.org/1999/xlink" x="0px" y="0px"
	 viewBox="0 0 900 900" enable-background="new 0 0 900 900" xml:space="preserve">
<circle fill-rule="evenodd" clip-rule="evenodd" fill="#BBBBBB" cx="450" cy="450" r="450"/>
<g>
	<path fill-rule="evenodd" clip-rule="evenodd" fill="#FFFFFF" d="M211.4,302.5v306H416c4,0,7.8,1.6,10.8,4.3
		c4.6,4.2,13.7,10.1,28.6,10.1c14.4,0,22.8-6.2,27.1-11c3-3.3,7.3-5.2,11.7-5.2h205.4v-306l0,0c9.1,0,16.5,7.4,16.5,16.5v286.5
		c0,11.7-9.5,21.3-21.3,21.3H503.4c-3.5,0-7,1.2-9.8,3.4c-5.7,4.5-18.4,12.1-39.1,12.1c-20.5,0-32.5-7.2-38.1-11.8
		c-2.9-2.4-6.5-3.6-10.2-3.6H213.4c-11.7,0-21.3-9.5-21.3-21.3V319c0-9.1,7.4-16.5,16.5-16.5H211.4z"/>
	<path fill-rule="evenodd" clip-rule="evenodd" fill="#FFFFFF" d="M336,257.6c-55.3-0.4-109.9,25.7-109.9,25.7l3.6,306.9
		c0,0,41.2-23.7,107.2-24.7c59.5-0.9,108.1,18.3,108.1,18.3V281.4C433,272.2,392,258,336,257.6z M420.9,521.9c-2.3,4-7.4,5.3-11.4,3
		c-0.3-0.2-30.1-17.1-75.5-17.1c-46.3,0-74.7,19.2-75,19.4c-1.4,1-3.1,1.5-4.7,1.5c-2.6,0-5.3-1.3-6.9-3.6c-2.6-3.8-1.7-9,2.1-11.6
		c1.3-0.9,32.9-22.3,84.4-22.3c50.1,0,82.5,18.6,83.9,19.4C421.9,512.9,423.3,518,420.9,521.9z M420.9,461.5c-2.3,4-7.4,5.3-11.4,3
		c-0.3-0.2-30.1-17.1-75.5-17.1c-46.3,0-74.7,19.2-75,19.4c-1.4,1-3.1,1.5-4.7,1.5c-2.6,0-5.3-1.3-6.9-3.6c-2.6-3.8-1.7-9,2.1-11.6
		c1.3-0.9,32.9-22.3,84.4-22.3c50.1,0,82.5,18.6,83.9,19.4C421.9,452.5,423.3,457.6,420.9,461.5z M420.9,401.1
		c-2.3,4-7.4,5.3-11.4,3C409.3,404,379.4,387,334,387c-46.3,0-74.7,19.2-75,19.4c-1.4,1-3.1,1.5-4.7,1.5c-2.6,0-5.3-1.3-6.9-3.6
		c-2.6-3.8-1.7-9,2.1-11.6c1.3-0.9,32.9-22.3,84.4-22.3c50.1,0,82.5,18.6,83.9,19.4C421.9,392,423.3,397.1,420.9,401.1z
		 M420.9,340.7c-2.3,4-7.4,5.3-11.4,3c-0.3-0.2-30.1-17.1-75.5-17.1c-46.3,0-74.7,19.2-75,19.4c-1.4,1-3.1,1.5-4.7,1.5
		c-2.6,0-5.3-1.3-6.9-3.6c-2.6-3.8-1.7-9,2.1-11.6c1.3-0.9,32.9-22.3,84.4-22.3c50.1,0,82.5,18.6,83.9,19.4
		C421.9,331.6,423.3,336.7,420.9,340.7z"/>
	<path fill-rule="evenodd" clip-rule="evenodd" fill="#FFFFFF" d="M574.6,257.6c-56,0.4-97.6,14.7-108.6,23.8v302.3
		c0,0,48.1-19.2,107.7-18.3c66,1,107,24.7,107,24.7l3.6-306.9C684.2,283.2,629.9,257.2,574.6,257.6z M660.2,525.1
		c-1.6,2.3-4.2,3.6-6.9,3.6c-1.6,0-3.3-0.5-4.7-1.5c-0.3-0.2-29-19.4-75-19.4c-45.7,0-75.2,16.9-75.5,17.1c-4,2.3-9.1,1-11.4-3
		c-2.3-4-1-9.1,3-11.4c1.4-0.8,33.8-19.4,83.9-19.4c51.5,0,83.1,21.4,84.4,22.3C661.8,516.1,662.8,521.3,660.2,525.1z M660.2,464.7
		c-1.6,2.3-4.2,3.6-6.9,3.6c-1.6,0-3.3-0.5-4.7-1.5c-0.3-0.2-29-19.4-75-19.4c-45.7,0-75.2,16.9-75.5,17.1c-4,2.3-9.1,1-11.4-3
		c-2.3-4-1-9.1,3-11.4c1.4-0.8,33.8-19.4,83.9-19.4c51.5,0,83.1,21.4,84.4,22.3C661.8,455.7,662.8,460.9,660.2,464.7z M660.2,404.3
		c-1.6,2.3-4.2,3.6-6.9,3.6c-1.6,0-3.3-0.5-4.7-1.5c-0.3-0.2-29-19.4-75-19.4c-45.7,0-75.2,16.9-75.5,17.1c-4,2.3-9.1,1-11.4-3
		c-2.3-4-1-9.1,3-11.4c1.4-0.8,33.8-19.4,83.9-19.4c51.5,0,83.1,21.4,84.4,22.3C661.8,395.3,662.8,400.5,660.2,404.3z M660.2,343.8
		c-1.6,2.3-4.2,3.6-6.9,3.6c-1.6,0-3.3-0.5-4.7-1.5c-0.3-0.2-29-19.4-75-19.4c-45.7,0-75.2,16.9-75.5,17.1c-4,2.3-9.1,1-11.4-3
		c-2.3-4-1-9.1,3-11.4c1.4-0.8,33.8-19.4,83.9-19.4c51.5,0,83.1,21.4,84.4,22.3C661.8,334.9,662.8,340,660.2,343.8z"/>
</g>
</svg>
