<?xml version="1.0" encoding="utf-8"?>
<!-- Generator: Adobe Illustrator 18.1.0, SVG Export Plug-In . SVG Version: 6.00 Build 0)  -->
<!DOCTYPE svg PUBLIC "-//W3C//DTD SVG 1.1//EN" "http://www.w3.org/Graphics/SVG/1.1/DTD/svg11.dtd">
<svg version="1.1" id="hobbies" xmlns="http://www.w3.org/2000/svg" xmlns:xlink="http://www.w3.org/1999/xlink" x="0px" y="0px"
	 viewBox="0 0 900 900" enable-background="new 0 0 900 900" xml:space="preserve">
<circle fill-rule="evenodd" clip-rule="evenodd" fill="#BBBBBB" cx="450" cy="450" r="450"/>
<path fill-rule="evenodd" clip-rule="evenodd" fill="#FFFFFF" d="M578,266.7c0-9.8-7.9-17.7-17.7-17.7H339.7
	c-9.8,0-17.7,7.9-17.7,17.7v366.6c0,9.8,7.9,17.7,17.7,17.7h220.6c9.8,0,17.7-7.9,17.7-17.7V266.7z M474,494
	c-6.9,0-17.8-2.9-19.1-11.9c0.1,3.2,0,12.6,1.9,18.5c2.7,8.5,8.4,15.4,11.9,17.4h-16.9h-3.4h-16.9c3.5-2,9.2-8.9,11.9-17.4
	c1.9-6,1.8-15.2,1.9-18.4C443.9,491.2,433,494,426,494c-7.2,0-27.3-3.5-27.3-29.5c0-24.4,17.2-40.1,30.1-53.2
	C441.8,398.2,450,380,450,380h0.1c0,0,8.2,18.2,21.1,31.3c12.9,13.1,30.1,28.7,30.1,53.1C501.2,490.5,481.1,494,474,494z"/>
<path fill="#FFFFFF" d="M176.3,541.5c0.3,12.3,10.8,20.4,24,21.3c13.2,0.9,24.9-6.4,25.9-19.4s-8.5-14.9-11.1-18.1
	c-2.6-3.2-5.3-12.8,3.6-10.6s44.9,8.3,47,8.5c2.1,0.2,5.1-0.4,4.9-6.6c-0.2-6.2-1.3-49.8-2.1-52.7c-0.9-3-4.7-7-9.4-4.3
	c-4.7,2.8-11.7,13-20.4,11.9c-8.7-1.1-20.4-5.7-21.3-23.8c-0.9-18.1,10.6-27,19.8-25.7c9.1,1.3,16.4,11.9,20.4,13
	c4,1.1,8.5-0.4,8.5-7.7c0-7.2-0.9-37.2-1.5-43.2c-0.6-6-3.2-10.6-10.4-8.3c-7.2,2.3-31.3,8.3-35.1,8.9c-3.8,0.6-7.2,0.2-8.5-2.6
	c-1.3-2.8-2.1-5.7,2.3-10.4s7.9-8.5,8.3-15.3c0.4-6.8-8.5-20.2-23.2-20c-14.7,0.2-27.9,7.9-26.8,20c1.1,12.1,8.5,14.2,10,16.8
	c1.5,2.6,5.1,6.4,3.2,8.9c-1.9,2.6-5.5,2.3-9.1,0.9c-3.6-1.5-23.6-4.9-30-5.1c-6.4-0.2-13.2-1.9-13.2,11.7s1.3,31.3,1.5,35.3
	c0.2,4-1.7,7.2-3.2,7.4c-1.5,0.2-6.4-0.2-8.1-3.6s-7.4-9.4-15.9-8.5c-8.5,0.9-21.1,7.9-20.4,24.7s11.3,24.9,19.8,25.1
	c8.5,0.2,14.7-7.7,16.8-10.2c2.1-2.6,10.4-7.4,10.4,1.3s0.6,34.4,0.9,42.1c0.2,7.7,0.2,16.2,7,15.9s35.1-3.4,37.9-3.8s9.6-0.9,9.6,3
	c0,3.8-1.5,5.1-4.5,8.7C180.9,530.6,176,532.3,176.3,541.5z"/>
<g>
	<path fill="#FFFFFF" d="M708.7,330.4l-14.1,2.6l2.2,8.5c0,0-18.7,5.3-23.7,9.2c-5,3.9-3.5,9.9-8.1,13.1s-34.3,29.4-36.1,32.6
		s0.7,10.3-1.4,14.9c-2.1,4.6,3.9,10.6,6.7,14.9c2.8,4.2,16.6,9.9,23.7,7.8c7.1-2.1,18.8-17,24.8-15.6s13.1,5.3,21.6,5.7
		c8.5,0.4,18.8-2.8,17.7-3.2c-1.1-0.4-25.1,24.4-41,43.5c-15.9,19.1-18,35.3-16.6,47.3c0.8,7.1,6,19.4,6,19.4h99.8
		c0,0-3.9-14.6-2.1-23.1c1.8-8.5,19.1-49.6,21.9-69c2.8-19.5,5.7-49.9-12.4-74.7c-18-24.8-35-31.1-49.2-34.3c0,0-3.1-8.9-9.2-15.3
		c-5.3-5.5-10.6-6.6-10.6-6.6L708.7,330.4z"/>
	<rect x="649.2" y="530.3" fill="#FFFFFF" width="140.7" height="12.7"/>
	<rect x="636.6" y="541.1" fill="#FFFFFF" width="165.9" height="33.5"/>
</g>
</svg>
