<?xml version="1.0" encoding="utf-8"?>
<!-- Generator: Adobe Illustrator 18.1.0, SVG Export Plug-In . SVG Version: 6.00 Build 0)  -->
<!DOCTYPE svg PUBLIC "-//W3C//DTD SVG 1.1//EN" "http://www.w3.org/Graphics/SVG/1.1/DTD/svg11.dtd">
<svg version="1.1" id="food" xmlns="http://www.w3.org/2000/svg" xmlns:xlink="http://www.w3.org/1999/xlink" x="0px" y="0px"
	 viewBox="0 0 900 900" enable-background="new 0 0 900 900" xml:space="preserve">
<circle fill-rule="evenodd" clip-rule="evenodd" fill="#BBBBBB" cx="450" cy="450" r="450"/>
<g>
	<path fill="#FFFFFF" d="M512.1,128.2c-7.2,0-13.1,5.8-13.1,13v273.2c0,1.8,0,3.5,0,5.4V759c0,19.3,15.4,35,34.8,35h0
		c19.3,0,35.2-15.7,35.2-35V507.6c17-7.5,30-25,30-45.2V215C599,167.1,560,128.2,512.1,128.2z"/>
	<path fill="#FFFFFF" d="M434.2,131h-1c-5.8,0-10.2,4.4-10.2,10.1v134.1c0,5.1-4,9.4-9.1,9.7c-5.5,0.2-9.9-4.1-9.9-9.5V141.1
		c0-5.8-4.6-10.1-10.3-10.1h0c-5.8,0-10.7,4.4-10.7,10.1v134.1c0,5.1-3.5,9.4-8.6,9.7c-5.5,0.2-9.4-4.1-9.4-9.5V141.1
		c0-5.8-5.2-10.1-10.9-10.1h0c-5.8,0-10.1,4.4-10.1,10.1v134.3c0,5.3-4.7,9.5-10,9.5s-10-4.3-10-9.5V141.1c0-5.8-4.9-10.1-10.6-10.1
		h-1c-5.8,0-10.4,4.4-10.4,10.1V348c0,16,13,29,29,29h8v382.2c0,19.3,15.2,35.8,34.6,35.8h-0.1c19.3,0,34.6-16.4,34.6-35.8V377h7.5
		c16.1,0,29.5-13,29.5-29V141.1C445,135.4,440,131,434.2,131z"/>
</g>
</svg>
