<?xml version="1.0" encoding="utf-8"?>
<!-- Generator: Adobe Illustrator 18.1.0, SVG Export Plug-In . SVG Version: 6.00 Build 0)  -->
<!DOCTYPE svg PUBLIC "-//W3C//DTD SVG 1.1//EN" "http://www.w3.org/Graphics/SVG/1.1/DTD/svg11.dtd">
<svg version="1.1" id="community" xmlns="http://www.w3.org/2000/svg" xmlns:xlink="http://www.w3.org/1999/xlink" x="0px" y="0px"
	 viewBox="0 0 900 900" enable-background="new 0 0 900 900" xml:space="preserve">
<circle fill-rule="evenodd" clip-rule="evenodd" fill="#BBBBBB" cx="450" cy="450" r="450"/>
<g>
	<polygon fill-rule="evenodd" clip-rule="evenodd" fill="#FFFFFF" points="604,412.2 450,533.2 296,412.2 140.6,534 192,534 
		192,673 265,673 265,585 328,585 328,673 400,673 400,534 448.6,534 451.4,534 500,534 500,673 572,673 572,585 635,585 635,673 
		708,673 708,534 759.4,534 	"/>
	<polygon fill-rule="evenodd" clip-rule="evenodd" fill="#FFFFFF" points="346,408 420,408 420,321 481,321 481,408 555,408 
		555,269 605.4,269 450,147 294.6,269 346,269 	"/>
</g>
</svg>
