<?xml version="1.0" encoding="utf-8"?>
<!-- Generator: Adobe Illustrator 18.1.0, SVG Export Plug-In . SVG Version: 6.00 Build 0)  -->
<!DOCTYPE svg PUBLIC "-//W3C//DTD SVG 1.1//EN" "http://www.w3.org/Graphics/SVG/1.1/DTD/svg11.dtd">
<svg version="1.1" id="religion" xmlns="http://www.w3.org/2000/svg" xmlns:xlink="http://www.w3.org/1999/xlink" x="0px" y="0px"
	 viewBox="0 0 900 900" enable-background="new 0 0 900 900" xml:space="preserve">
<circle fill-rule="evenodd" clip-rule="evenodd" fill="#BBBBBB" cx="450" cy="450" r="450"/>
<polygon fill="#FFFFFF" points="529,392 469,392 469,325 432,325 432,392 372,392 372,425 432,425 432,576 469,576 469,425 529,425 
	"/>
<g>
	<path fill="#FFFFFF" d="M733.7,547c-54.2,0-98.2-44-98.2-98.2s44-98.2,98.2-98.2c15.4,0,29.9,3.5,42.9,9.8
		c-20.3-16.7-46.3-26.7-74.6-26.7c-65,0-117.8,52.7-117.8,117.8c0,65,52.7,117.8,117.8,117.8c35.7,0,67.6-15.9,89.2-40.9
		C775,540.1,755.2,547,733.7,547z"/>
	<polygon fill="#FFFFFF" points="771.6,403.6 781.1,431.4 810.1,431.5 786.9,449.3 795.4,476.7 771.6,460.4 747.9,476.7 
		756.4,449.3 733.2,431.5 762.2,431.4 	"/>
</g>
<path fill="#FFFFFF" d="M322.2,448h-10C308,395,265,350.8,211,346v-8.9c0-5.4-4.6-9.9-10-9.9s-10,4.4-10,9.9v8.9
	c-52,4.8-96,49-100.2,102h-10c-5.4,0-9.9,5.1-9.9,10.5s4.4,10.5,9.9,10.5H91c5.3,52,48,93.5,100,98.1v11.4c0,5.4,4.6,9.9,10,9.9
	s10-4.4,10-9.9v-11.4c53-4.7,95.7-46.1,100.9-98.1h10.3c5.4,0,9.9-5.1,9.9-10.5S327.6,448,322.2,448z M211,365.8
	c18,2,34.8,9.2,48.2,20.2l-35.9,35.8c-3.7-2.4-7.3-4.1-12.3-5.2V365.8z M191,365.8v50.8c-3,1.1-8.2,2.9-11.9,5.2l-36-35.8
	C156.5,375,174,367.8,191,365.8z M129.8,400.1l36,36c-2.1,3.6-3.7,8.9-4.6,11.9h-50.6C112.3,430,119.2,413.5,129.8,400.1z
	 M110.9,469h51c1.1,3,2.8,6.9,4.9,10.3l-35.8,36.2C120.2,502.4,113,486,110.9,469z M191,547.3c-17-1.9-33.2-8.7-46.3-19.1l35.8-36
	c3.3,1.9,7.5,3.4,10.5,4.3V547.3z M201.5,476.4c-10.9,0-19.8-8.9-19.8-19.8c0-10.9,8.9-19.8,19.8-19.8s19.8,8.9,19.8,19.8
	C221.2,467.5,212.4,476.4,201.5,476.4z M211,547.3v-50.8c4-0.9,7.5-2.4,10.8-4.3l35.9,36C244.6,538.6,229,545.4,211,547.3z
	 M272,515.1l-35.8-35.5c2.1-3.4,3.8-7.6,4.9-10.6h51C289.9,486,282.8,502,272,515.1z M241.7,448c-0.9-3-2.5-8.2-4.6-11.9l36-36
	c10.6,13.4,17.5,29.9,19.2,47.9H241.7z"/>
<g>
	<path fill="#FFFFFF" d="M554.8,167.6c-2.5-26.5-10.3-41.5-24.8-47.7c-6.2-2.7-21.8-2.6-28.2,0.2c-9.6,4.1-17.8,15-21.2,28.4
		l-1.4,5.7l-8.2,0.7c-9.4,0.8-18.8,5.1-27.9,12.6c-6.6,5.5-7.1,5.6-9.8,3c-1.6-1.6-1.6-2.6-0.1-7.7c4.5-15.1-0.6-34.2-12.1-45.8
		c-10.9-11-28.4-14.9-47.6-10.6c-14.6,3.3-14.6,3.4-9.7,15.9c2.3,5.8,4.7,11.2,5.3,12c0.8,1.1,3.2,0.5,9.1-2.2
		c9-4.1,22-6.1,31.1-4.7c12.2,1.8,17.7,13.4,12.7,26.7c-3.4,8.9-17.1,19.8-28.5,22.5c-1.9,0.5-3.4,1.6-3.4,2.5
		c0,1.4,8.3,22,9.4,23.2c1.2,1.3,12-6.2,18.9-13.1l8.1-8.2l3.3,3.2c1.8,1.8,5.2,6.3,7.5,10.2c11,18.3,13.4,37.6,6.3,51.8
		c-7.5,15-21.6,21.2-39.8,17.4c-27.9-5.9-50.1-33.1-60.2-74.1c-2.1-8.7-4.3-15.7-4.9-15.7c-0.5,0-2.4,0.5-4.1,1.2
		c-2.8,1.1-3,1.7-2.5,6.6c1.1,9.3,6.5,31,9.9,39.7c12.2,31.2,37.3,56.1,62.6,62.3c8.9,2.2,20.6,2.4,29.2,0.5
		c23.3-5,36.7-25.2,33.4-50.2c-1.6-11.9-4.2-19.3-11.3-31.8l-6.4-11.2l3.3-2.6c4-3.2,13.8-6.9,18.4-6.9c9.6,0,11.2,4,12.4,30.1
		c1,22.7,2.1,28.1,7,33.9c5,6,9.9,7.9,19.8,7.8c10.8-0.1,18.2-3.2,26-10.9C550.7,228.3,557.8,199.3,554.8,167.6z M543,197.8
		c-3.2,15.2-10.8,26.4-21.2,31.2c-8.4,3.8-16.3,2.8-21.3-2.9c-4.8-5.4-5.8-10.8-6.2-34.7c-0.4-24.9-0.8-27.1-4.7-31.4
		c-2.6-2.8-2.6-2.9-0.3-7.2c5.1-9.5,20.7-15.4,32-12c10.4,3.1,18.6,14,21.7,28.5C545.3,180.2,545.3,187,543,197.8z"/>
	<path fill="#FFFFFF" d="M443.8,111c-3.8-1.3-8.7-3.3-10.9-4.4c-5.4-2.8-19.6-16.3-22.9-21.7c-2.6-4.2-2.6-4.4-0.5-6.8
		c3-3.4,3.9-3.2,10,2.5c8.7,8.1,17,11.7,27.3,11.7c10.8,0,18.8-3.4,26.6-11.4c2.9-3,6-5.2,6.9-4.9c2.5,1.1,18.4,14.8,18.4,15.9
		c0,2.4-13.7,13.2-21.1,16.8C467.2,113.6,454.1,114.5,443.8,111z"/>
	<path fill="#FFFFFF" d="M442.2,72.6l-7.2-7.8l7.6-7.3l7.6-7.3l8,8l8,8l-7.2,7.2c-4,3.9-7.8,7.1-8.5,7.1
		C450,80.4,446.2,76.9,442.2,72.6z"/>
</g>
<path fill="#FFFFFF" d="M525.4,735.5L563,670h-75.2l-36.3-62.9L415.2,670H340l37.6,65.5L340,801h75.2l36.3,62.9l36.3-62.9H563
	L525.4,735.5z M535.5,686l-19.3,33.4L497,686H535.5z M507.1,735l-28.4,49h-54.3l-28.4-49l28.4-49h54.3L507.1,735z M451.5,638.9
	l18,31.1h-35.9L451.5,638.9z M367.5,686h38.6l-19.3,33.4L367.5,686z M367.5,784l19.3-33.4l19.3,33.4H367.5z M451.5,832.1l-18-31.1
	h35.9L451.5,832.1z M516.3,750.6l19.3,33.4H497L516.3,750.6z"/>
</svg>
