<?xml version="1.0" encoding="utf-8"?>
<!-- Generator: Adobe Illustrator 18.1.0, SVG Export Plug-In . SVG Version: 6.00 Build 0)  -->
<!DOCTYPE svg PUBLIC "-//W3C//DTD SVG 1.1//EN" "http://www.w3.org/Graphics/SVG/1.1/DTD/svg11.dtd">
<svg version="1.1" id="sports" xmlns="http://www.w3.org/2000/svg" xmlns:xlink="http://www.w3.org/1999/xlink" x="0px" y="0px"
	 viewBox="0 0 900 900" enable-background="new 0 0 900 900" xml:space="preserve">
<circle fill-rule="evenodd" clip-rule="evenodd" fill="#BBBBBB" cx="450" cy="450" r="450"/>
<path fill="#FFFFFF" d="M554.7,678.6c-22.2-10.6-49-10.9-72.3,1.6c-23.3,12.5-37.9,35-41.4,59.4c22.3,5.6,46.7,3.2,68.6-8.5
	C531.5,719.3,547,700.3,554.7,678.6z"/>
<path fill="#FFFFFF" d="M473.4,663.4c27.6-14.8,59.2-15.1,86-3.6c2.8-19.5-0.4-40.1-10.4-58.9c-10.1-18.8-25.5-32.8-43.3-41.3
	c-5.3,28.6-23,54.7-50.6,69.5s-59.1,15.1-85.9,3.6c-2.8,19.6,0.4,40.2,10.4,59c10,18.7,25.4,32.8,43.2,41.3
	C428,704.3,445.8,678.2,473.4,663.4z"/>
<path fill="#FFFFFF" d="M487.3,553.1c-22.3-5.5-46.6-3.1-68.5,8.6s-37.3,30.6-45.1,52.3c22.2,10.6,48.9,10.8,72.2-1.6
	S483.9,577.4,487.3,553.1z"/>
<path fill="#FFFFFF" d="M362.5,231.3c-5.2-2.9-11.8-0.3-13.5,5.5c-6.3,20.9-21.2,70.4-38.3,126.8l29.6,9c5.5,1.7,8.6,7.5,7,13v0
	c-1.7,5.5-7.5,8.6-13,7l-29.6-9c-2.5,8.4-5.1,16.9-7.7,25.4l29.6,9c5.5,1.7,8.6,7.5,7,13v0c-1.7,5.5-7.5,8.6-13,7l-29.7-9
	c-2.6,8.5-5.1,17-7.7,25.4l29.7,9c5.5,1.7,8.6,7.5,7,13l0,0c-1.7,5.5-7.5,8.6-13,7l-29.7-9C260,531,245,580.6,238.8,601.1
	c-1.7,5.7,2.3,11.6,8.3,12c54.8,3.4,150.6-67,177.1-154.8C450.8,370.5,410.7,258.7,362.5,231.3z"/>
<path fill="#FFFFFF" d="M229.1,459.9c-5.5-1.7-8.6-7.5-7-13c1.7-5.5,7.5-8.6,13-7l29.7,9c2.5-8.4,5.1-16.9,7.7-25.4l-29.7-9
	c-5.5-1.7-8.6-7.5-7-13c1.7-5.5,7.5-8.6,13-7l29.6,9c2.6-8.5,5.1-17,7.7-25.4l-29.6-9c-5.5-1.7-8.6-7.5-7-13h0c1.7-5.5,7.5-8.6,13-7
	l29.6,9c17-56.4,32-105.9,38.3-126.7c1.7-5.7-2.3-11.6-8.2-12c-55.3-4-150.6,66.9-177.1,154.9c-26.5,87.8,14.2,199.5,61.8,227
	c5.2,3,11.8,0.3,13.6-5.4c6.2-20.5,21.2-70.1,38.3-126.8L229.1,459.9z"/>
<path fill-rule="evenodd" clip-rule="evenodd" fill="#FFFFFF" d="M625.1,430.9L554,254.4c-33.1,15.5-59.2,42.2-74.4,73.7
	c40.4,14.7,74.8,45.7,92.1,88.6c3.8,9.4,6.3,19,8.2,28.6C594.9,441.5,610.5,436.5,625.1,430.9z"/>
<path fill-rule="evenodd" clip-rule="evenodd" fill="#FFFFFF" d="M485.5,475.4c15.7,27,38.6,48,65.2,61.4
	c10.6-21.3,15.6-45.3,14.3-69.6C537.7,473,510.9,475.8,485.5,475.4z"/>
<path fill-rule="evenodd" clip-rule="evenodd" fill="#FFFFFF" d="M671.2,376.7c-17.3-42.9-14.2-89,4.8-127.6
	c-32.6-12.1-68.9-13.6-104.5-1.6l71,176.4c15.3-6.5,28.9-13.3,42.4-20.8C679.6,394.9,675,386.1,671.2,376.7z"/>
<path fill-rule="evenodd" clip-rule="evenodd" fill="#FFFFFF" d="M473,344.6c-12.1,34.7-12.2,73.8,2.6,110.5c0.3,0.7,0.6,1.3,0.8,2
	c27.2,1.3,56.4-1.4,86.3-7.8c-1.7-8.7-4.2-17.4-7.6-25.9C539.7,385.2,509.1,357.5,473,344.6z"/>
<path fill-rule="evenodd" clip-rule="evenodd" fill="#FFFFFF" d="M695.5,417.7c-14.7,8.3-30,15.9-46.3,22.9l39.4,98
	c34-16,58.9-42.1,74.1-73.3C736.8,455.8,713.5,439.5,695.5,417.7z"/>
<path fill-rule="evenodd" clip-rule="evenodd" fill="#FFFFFF" d="M711.2,408.4c15.8,18.5,36.1,32.2,58.5,40.3
	c9.9-28.1,11.9-59.1,4.5-89.5C756,377,734.8,393.6,711.2,408.4z"/>
<path fill-rule="evenodd" clip-rule="evenodd" fill="#FFFFFF" d="M767.2,337.8c-14.8-36.8-42-64.9-74.7-81.5
	c-17.1,34.3-20,75.4-4.6,113.7c3.4,8.5,7.6,16.5,12.5,24c26-16.1,48.9-34.4,67.6-54.2C767.7,339.1,767.5,338.4,767.2,337.8z"/>
<path fill-rule="evenodd" clip-rule="evenodd" fill="#FFFFFF" d="M631.8,447.6c-16.5,6.3-32.9,11.5-49.5,15.7
	c2.2,28.2-3.6,56.1-15.7,80.9c32.7,12,70,13.1,104.6,1.4L631.8,447.6z"/>
</svg>
