<?xml version="1.0" encoding="utf-8"?>
<!-- Generator: Adobe Illustrator 18.1.0, SVG Export Plug-In . SVG Version: 6.00 Build 0)  -->
<!DOCTYPE svg PUBLIC "-//W3C//DTD SVG 1.1//EN" "http://www.w3.org/Graphics/SVG/1.1/DTD/svg11.dtd">
<svg version="1.1" id="performing_x5F_arts" xmlns="http://www.w3.org/2000/svg" xmlns:xlink="http://www.w3.org/1999/xlink"
	 x="0px" y="0px" viewBox="0 0 900 900" enable-background="new 0 0 900 900" xml:space="preserve">
<circle fill-rule="evenodd" clip-rule="evenodd" fill="#BBBBBB" cx="450" cy="450" r="450"/>
<path fill="#FFFFFF" d="M715.4,225.8H190.5c-7.7,0-14-6.3-14-14v-3.9c0-7.7,6.3-14,14-14h524.9c7.7,0,14,6.3,14,14v3.9
	C729.4,219.5,723.1,225.8,715.4,225.8z"/>
<path fill-rule="evenodd" clip-rule="evenodd" fill="#FFFFFF" d="M215,506h-15.2c-7.8,0-14.2-6.4-14.2-14.2v-1.2
	c0-7.8,6.4-14.2,14.2-14.2H215c7.8,0,14.2,6.4,14.2,14.2v1.2C229.3,499.6,222.9,506,215,506z"/>
<g>
	<path fill="#FFFFFF" d="M306.9,409.2c19.8-20.8,36.4-46.4,49.4-76.3C374,292.4,380.2,255,382,241h-50.9c-1.6,13-7.7,53.4-27,98.1
		c-13.8,31.8-31.5,59.1-52.6,81.4c-17,17.9-36.2,32.5-57.4,43.7c8.7-0.9,24.3-2.9,43.2-6.9C263.6,446.4,286.9,430.3,306.9,409.2z"/>
	<path fill="#FFFFFF" d="M239,409.2c19.8-20.8,36.5-46.4,49.5-76.3c17.6-40.5,24-77.9,25.8-91.9h-46.7c-1.6,13-7.7,53.4-27,98.1
		c-13.8,31.8-31.7,59.1-52.8,81.4c-0.5,0.5-0.8,0.9-1.8,1.5v27.4C206,439.1,223.4,425.6,239,409.2z"/>
	<path fill="#FFFFFF" d="M224.8,332.9c17.6-40.5,24.1-77.9,25.9-91.9H186v155.9C202,378.5,214.3,357.2,224.8,332.9z"/>
	<path fill="#FFFFFF" d="M398.8,241c-1.6,13-7.7,53.4-27,98.1c-13.8,31.8-31.5,59.1-52.6,81.4c-6.1,6.5-12.5,12.4-19.2,18
		c24.2-9.8,48.5-23,68.7-41.3C436.4,336,436.5,241,436.5,241H398.8z"/>
</g>
<g>
	<path fill="#FFFFFF" d="M236.3,709h19.8c0,0-2.1-45.6-6.2-92.5c-4.6-51.4-23-100.8-23-100.8c-4.9,1.6-9.6,2.6-14.1,3.4
		C218.6,550.2,232.5,630,236.3,709z"/>
	<path fill="#FFFFFF" d="M196,520.5c-6.2,0-10.1-0.7-10.1-0.7l1.6,189.1h32.1C215.7,630,201.6,549.8,196,520.5z"/>
</g>
<g>
	<path fill="#FFFFFF" d="M657.7,420.4c-21.1-22.3-38.8-49.6-52.6-81.3c-19.4-44.7-25.4-85.1-27-98.1h-50.9
		c1.9,14,8.1,51.4,25.7,91.9c13,29.9,29.6,55.5,49.4,76.4c20,21.1,43.3,37.2,69.5,48.1c18.9,4,34.5,6,43.3,6.8
		C693.9,453,674.7,438.3,657.7,420.4z"/>
	<path fill="#FFFFFF" d="M721.3,420.4c-21.1-22.3-38.8-49.6-52.6-81.3c-19.4-44.7-25.5-85.1-27-98.1H595c1.9,14,8.1,51.4,25.7,91.9
		c13,29.9,29.7,55.5,49.4,76.4c15.7,16.5,32.9,29.9,52.9,40.2v-27.4C722,421.5,721.9,421,721.3,420.4z"/>
	<path fill="#FFFFFF" d="M590,420.4c-21.1-22.3-38.8-49.6-52.6-81.3c-19.4-44.7-25.4-85.1-27-98.1h-37.7c0,0,0.2,95,67.9,156.2
		c20.1,18.2,44.4,31.5,68.6,41.3C602.5,432.9,596.1,426.8,590,420.4z"/>
	<path fill="#FFFFFF" d="M684.2,332.9c10.6,24.3,23.8,45.7,38.8,64.2V241h-64.5C660.4,255,666.6,292.4,684.2,332.9z"/>
</g>
<g>
	<path fill="#FFFFFF" d="M696.5,519.1c-4.4-0.8-9.2-1.8-14.1-3.4c0,0-18.4,49.4-23,100.7c-4.2,46.9-6.2,92.6-6.2,92.6H673
		C676.8,630,690.6,550.2,696.5,519.1z"/>
	<path fill="#FFFFFF" d="M713.2,520.5c-5.6,29.3-19.7,109.5-23.6,188.5h32.1l1.6-189.1C723.3,519.9,719.5,520.5,713.2,520.5z"/>
</g>
<path fill-rule="evenodd" clip-rule="evenodd" fill="#FFFFFF" d="M694.2,506h15.2c7.8,0,14.2-6.4,14.2-14.2v-1.2
	c0-7.8-6.4-14.2-14.2-14.2h-15.2c-7.8,0-14.2,6.4-14.2,14.2v1.2C680,499.6,686.4,506,694.2,506z"/>
</svg>
