<?xml version="1.0" encoding="utf-8"?>
<!-- Generator: Adobe Illustrator 18.1.0, SVG Export Plug-In . SVG Version: 6.00 Build 0)  -->
<!DOCTYPE svg PUBLIC "-//W3C//DTD SVG 1.1//EN" "http://www.w3.org/Graphics/SVG/1.1/DTD/svg11.dtd">
<svg version="1.1" id="building" xmlns="http://www.w3.org/2000/svg" xmlns:xlink="http://www.w3.org/1999/xlink" x="0px" y="0px"
	 viewBox="0 0 900 900" enable-background="new 0 0 900 900" xml:space="preserve">
<g>
	<circle fill-rule="evenodd" clip-rule="evenodd" fill="#FFFFFF" cx="450" cy="450" r="450"/>
	<path fill-rule="evenodd" clip-rule="evenodd" fill="#35A297" d="M450,0C201.5,0,0.1,201.5,0.1,450C0.1,617.7,92,764,228,841.4V179
		h445v661.8C808,763.2,899.9,617.3,899.9,450C899.9,201.5,698.5,0,450,0z"/>
	<g>
		<rect x="274.1" y="280.6" fill="#35A297" width="63.2" height="62.6"/>
		<rect x="370.6" y="280.6" fill="#35A297" width="63.2" height="62.6"/>
		<rect x="467.2" y="280.6" fill="#35A297" width="63.2" height="62.6"/>
		<rect x="563.7" y="280.6" fill="#35A297" width="63.2" height="62.6"/>
	</g>
	<g>
		<rect x="274.1" y="371.9" fill="#35A297" width="63.2" height="62.6"/>
		<rect x="370.6" y="371.9" fill="#35A297" width="63.2" height="62.6"/>
		<rect x="467.2" y="371.9" fill="#35A297" width="63.2" height="62.6"/>
		<rect x="563.7" y="371.9" fill="#35A297" width="63.2" height="62.6"/>
	</g>
	<g>
		<rect x="274.1" y="463.2" fill="#35A297" width="63.2" height="62.6"/>
		<rect x="370.6" y="463.2" fill="#35A297" width="63.2" height="62.6"/>
		<rect x="467.2" y="463.2" fill="#35A297" width="63.2" height="62.6"/>
		<rect x="563.7" y="463.2" fill="#35A297" width="63.2" height="62.6"/>
	</g>
	<g>
		<rect x="274.1" y="554.5" fill="#35A297" width="63.2" height="62.6"/>
		<rect x="370.6" y="554.5" fill="#35A297" width="63.2" height="62.6"/>
		<rect x="467.2" y="554.5" fill="#35A297" width="63.2" height="62.6"/>
		<rect x="563.7" y="554.5" fill="#35A297" width="63.2" height="62.6"/>
	</g>
</g>
</svg>
