<?xml version="1.0" encoding="utf-8"?>
<!-- Generator: Adobe Illustrator 18.1.0, SVG Export Plug-In . SVG Version: 6.00 Build 0)  -->
<!DOCTYPE svg PUBLIC "-//W3C//DTD SVG 1.1//EN" "http://www.w3.org/Graphics/SVG/1.1/DTD/svg11.dtd">
<svg version="1.1" id="music" xmlns="http://www.w3.org/2000/svg" xmlns:xlink="http://www.w3.org/1999/xlink" x="0px" y="0px"
	 viewBox="0 0 900 900" enable-background="new 0 0 900 900" xml:space="preserve">
<g>
	<circle fill-rule="evenodd" clip-rule="evenodd" fill="#BBBBBB" cx="450" cy="450" r="450"/>
	<path fill="#FFFFFF" d="M602,572.6V245.1v-37.6L327.8,301l0.2,99.2v145.7c-19-10.2-49.1-9.7-72.2-0.9
		c-41.3,15.6-65.4,53.2-53.8,83.9c11.6,30.7,54.6,42.9,95.9,27.3c37.8-14.3,56.1-40.7,56.1-75.8V391l221-75.2v224
		c-18-6.8-47.7-8.2-70.6,0.5c-41.3,15.6-65.4,53.2-53.8,83.9c11.6,30.7,54.6,42.9,96,27.3C585.6,636.7,602,608.4,602,572.6z"/>
</g>
</svg>
