<?xml version="1.0" encoding="utf-8"?>
<!-- Generator: Adobe Illustrator 18.1.0, SVG Export Plug-In . SVG Version: 6.00 Build 0)  -->
<!DOCTYPE svg PUBLIC "-//W3C//DTD SVG 1.1//EN" "http://www.w3.org/Graphics/SVG/1.1/DTD/svg11.dtd">
<svg version="1.1" id="education" xmlns="http://www.w3.org/2000/svg" xmlns:xlink="http://www.w3.org/1999/xlink" x="0px" y="0px"
	 viewBox="0 0 900 900" enable-background="new 0 0 900 900" xml:space="preserve">
<circle fill-rule="evenodd" clip-rule="evenodd" fill="#BBBBBB" cx="450" cy="450" r="450"/>
<g>
	<path fill="#FFFFFF" d="M449.8,537.2c-5.2,0-10.4-1-15.2-3.1l-153.9-64.9l-0.7,76.7h0c0,0,0,0.3,0,0.4c0,28.4,70.8,70.3,174.3,70.3
		c111.1,0,174.3-45.7,174.3-70.2c0-0.2,0-0.5,0-0.5h0.3v-81.1l-164,69.3C460.1,536.2,455.1,537.2,449.8,537.2z"/>
	<path fill="#FFFFFF" d="M715.8,377.6L454.1,267.2c-1.4-0.6-2.8-0.9-4.3-0.9c-1.5,0-2.9,0.3-4.3,0.9L183.9,377.6
		c-6.2,2.6-6.7,8.4-6.7,10.1c0,1.7,0.5,7.5,6.7,10.1l261.7,110.4c2.7,1.1,5.8,1.1,8.5,0L587,452.1l-14-6.3l0,0l-124.3-55.9
		c-7.1-3.2-10.2-11.5-7.1-18.6c3.2-7.1,11.5-10.2,18.6-7.1l158.8,71.4l3.4,1.5c0,0,36,15.2,36,41.5c0,12.7,0,27.7,0,40.6
		c-6.3,3.8-10.5,10.7-10.5,18.7c0,8.3,4.7,15.6,11.5,19.3c-4.3,7.5-10.6,20-13.7,32.1c-4.9,19.1-4.4,52.6-4.4,52.6s6.5,0,27.3,0
		c20.8,0,28.6,0,28.6,0s1.5-34.3-5.3-55c-3.6-11-8.1-21.2-11.8-29.6c6.9-3.7,11.5-11,11.5-19.3c0-8.4-4.8-15.7-11.7-19.4
		c0-15.6,0.1-33.3,0.1-43.6c0-23.3-12.2-39.1-33.7-47.8l69.5-29.4c6.2-2.6,6.7-8.4,6.7-10.1C722.4,386,722,380.2,715.8,377.6z"/>
</g>
</svg>
