<?xml version="1.0" encoding="utf-8"?>
<!-- Generator: Adobe Illustrator 18.1.0, SVG Export Plug-In . SVG Version: 6.00 Build 0)  -->
<!DOCTYPE svg PUBLIC "-//W3C//DTD SVG 1.1//EN" "http://www.w3.org/Graphics/SVG/1.1/DTD/svg11.dtd">
<svg version="1.1" id="individual" xmlns="http://www.w3.org/2000/svg" xmlns:xlink="http://www.w3.org/1999/xlink" x="0px" y="0px"
	 viewBox="0 0 900 900" enable-background="new 0 0 900 900" xml:space="preserve">
<g>
	<circle fill-rule="evenodd" clip-rule="evenodd" fill="#FFFFFF" cx="450" cy="450" r="450"/>
	<path fill-rule="evenodd" clip-rule="evenodd" fill="#35A297" d="M450,0C201.5,0,0,201.5,0,450c0,169.9,94.2,317.8,233.2,394.4
		c11.9-46.8,26-92.4,36.6-121.7c20-55.2,47.1-108.7,74.3-135.7c34.3,19,71.3,29.2,108.2,29.2c35.7,0,70.7-9.2,104.1-27.4
		c0.8-0.4,1.6-0.9,2.4-1.3c12.9,22.2,43.9,78.5,65.8,142.1c12.6,36.5,24.6,79.3,34.2,119.1C802.2,773.5,900,623.2,900,450
		C900,201.5,698.5,0,450,0z"/>
	<path fill-rule="evenodd" clip-rule="evenodd" fill="#FFFFFF" d="M606.9,233.6c-40.3-40.2-95-62.4-153.8-62.4c-2.1,0-4.3,0-6.5,0.1
		c-17.8,0.5-35,2.7-51.4,6.5c4.4,3.2,8,7.6,11.3,12.1c6.8,9.4,11.7,20.1,15.1,31.2c13.6,44.8,2,91.2-6.6,135.7
		c-4.1,21-10.5,46-2.9,66.9c5.6,15.3,22.1,23.7,37.1,16.6c7.5-3.5,13.7,4.9,8.6,11.1c-14.8,18.3-43.7,5.7-54.9-9.9
		c-13.6-19-10.5-44.5-6.7-66.1c4.3-25,11.1-49.4,15.5-74.4c3.9-22.3,5.7-45.7,1.6-68.1c-1.9-10.6-5.2-20.9-10-30.6
		c-4-8.2-9.4-17.9-18-22.1c-9.2,2.6-18.2,5.7-27,9.3c-25.8,10.8-48.6,25.9-67.7,45.1c-38.2,38.3-59.2,90.7-59.2,147.6
		c0,55.5,23.6,108.7,66.4,149.7c41.9,40.1,98,63.1,153.8,63.1c28.3,0,56.2-5.7,82.7-17.1c25.7-11,49-26.6,69.1-46.4
		c20.2-19.9,36.1-42.8,47.2-68.1c11.6-26.3,17.4-53.9,17.4-82.1C668.4,325.6,646.6,273.1,606.9,233.6z M353.1,355.6
		c-9.5,0-17.1-7.7-17.1-17.1s7.7-17.1,17.1-17.1s17.1,7.7,17.1,17.1S362.6,355.6,353.1,355.6z M486.6,494.2
		c-14.7,11-33.4,16.4-51.8,15.5c-9.2-0.5-18.2-2.4-26.6-6.1c-7.7-3.4-16.6-8.7-19.6-16.9c-1.9-5.1,4.9-7.6,8.2-4.8
		c3,2.4,5.4,5.1,8.8,7c3.3,1.8,6.9,3,10.5,4c6.9,1.9,13.9,2.9,21.1,2.7c14.1-0.4,28.5-5.3,39.7-14
		C486.1,474.4,495.8,487.3,486.6,494.2z M530.2,354.6c-9.5,0-17.2-7.7-17.2-17.2c0-9.5,7.7-17.2,17.2-17.2c9.5,0,17.2,7.7,17.2,17.2
		C547.5,346.9,539.7,354.6,530.2,354.6z"/>
</g>
</svg>
