<?xml version="1.0" encoding="utf-8"?>
<!-- Generator: Adobe Illustrator 18.1.0, SVG Export Plug-In . SVG Version: 6.00 Build 0)  -->
<!DOCTYPE svg PUBLIC "-//W3C//DTD SVG 1.1//EN" "http://www.w3.org/Graphics/SVG/1.1/DTD/svg11.dtd">
<svg version="1.1" id="Layer_5" xmlns="http://www.w3.org/2000/svg" xmlns:xlink="http://www.w3.org/1999/xlink" x="0px" y="0px"
	 viewBox="0 0 100 100" enable-background="new 0 0 100 100" xml:space="preserve">
<path fill="#AFAFAF" d="M95.8,46.1L54,46l0-41.8c0-2.2-1.8-4-4-4s-4,1.8-4,4L46,46L4.2,46c-2.2,0-4,1.8-4,4c0,1.1,0.4,2.1,1.2,2.8
	s1.7,1.2,2.8,1.2L46,54l0,41.8c0,1.1,0.4,2.1,1.2,2.8s1.7,1.2,2.8,1.2c2.2,0,4-1.8,4-4L54,54l41.8,0c2.2,0,4-1.8,4-4
	S97.9,46.1,95.8,46.1z"/>
</svg>
