<?xml version="1.0" encoding="utf-8"?>
<!-- Generator: Adobe Illustrator 18.1.0, SVG Export Plug-In . SVG Version: 6.00 Build 0)  -->
<!DOCTYPE svg PUBLIC "-//W3C//DTD SVG 1.1//EN" "http://www.w3.org/Graphics/SVG/1.1/DTD/svg11.dtd">
<svg version="1.1" id="searchicon" xmlns="http://www.w3.org/2000/svg" xmlns:xlink="http://www.w3.org/1999/xlink" x="0px" y="0px"
	 viewBox="0 0 100 100" enable-background="new 0 0 100 100" xml:space="preserve">
<path fill="#47D6C8" d="M97.8,90.7L74.3,67.2c5.6-7,8.9-15.9,8.9-25.6C83.2,18.8,64.8,0.4,42,0.4S0.8,18.8,0.8,41.6
	c0,22.8,18.5,41.2,41.2,41.2c9.2,0,17.7-3.1,24.6-8.2l23.7,23.7c1.8,1.8,4.7,1.8,6.5,0l1-1C99.6,95.4,99.6,92.5,97.8,90.7z M42,71.7
	c-16.6,0-30.1-13.5-30.1-30.1C11.9,25,25.4,11.5,42,11.5S72.1,25,72.1,41.6C72.1,58.2,58.6,71.7,42,71.7z"/>
</svg>
