<?xml version="1.0" encoding="utf-8"?>
<!-- Generator: Adobe Illustrator 18.1.0, SVG Export Plug-In . SVG Version: 6.00 Build 0)  -->
<!DOCTYPE svg PUBLIC "-//W3C//DTD SVG 1.1//EN" "http://www.w3.org/Graphics/SVG/1.1/DTD/svg11.dtd">
<svg version="1.1" id="twitter" xmlns="http://www.w3.org/2000/svg" xmlns:xlink="http://www.w3.org/1999/xlink" x="0px" y="0px"
	 viewBox="0 0 100 100" enable-background="new 0 0 100 100" xml:space="preserve">
<circle fill="#0AA9E9" cx="50" cy="50" r="50"/>
<path fill="#FFFFFF" d="M67.9,38.2c-1.3,0.6-2.7,1-4.2,1.2c1.5-1,2.7-2.5,3.2-4.3c-1.4,0.9-3,1.5-4.7,1.9c-1.3-1.5-3.2-2.5-5.4-2.5
	c-4.1,0-7.3,3.5-7.3,7.8c0,0.6,0.1,1.2,0.2,1.8c-6.1-0.3-11.5-3.4-15.1-8.1c-0.6,1.1-1,2.5-1,3.9c0,2.7,1.3,5.1,3.3,6.5
	c-1.2,0-2.3-0.4-3.3-1c0,0,0,0.1,0,0.1c0,3.8,2.5,6.9,5.9,7.6c-0.6,0.2-1.3,0.3-1.9,0.3c-0.5,0-0.9,0-1.4-0.1
	c0.9,3.1,3.6,5.3,6.9,5.4c-2.5,2.1-5.7,3.3-9.1,3.3c-0.6,0-1.2,0-1.8-0.1c3.2,2.2,7.1,3.5,11.3,3.5c13.5,0,20.9-11.9,20.9-22.1
	c0-0.3,0-0.7,0-1C65.7,41.2,66.9,39.8,67.9,38.2z"/>
</svg>
