<?xml version="1.0" encoding="utf-8"?>
<!-- Generator: Adobe Illustrator 18.1.0, SVG Export Plug-In . SVG Version: 6.00 Build 0)  -->
<!DOCTYPE svg PUBLIC "-//W3C//DTD SVG 1.1//EN" "http://www.w3.org/Graphics/SVG/1.1/DTD/svg11.dtd">
<svg version="1.1" id="Layer_1" xmlns="http://www.w3.org/2000/svg" xmlns:xlink="http://www.w3.org/1999/xlink" x="0px" y="0px"
	 viewBox="0 0 100 50" enable-background="new 0 0 100 50" xml:space="preserve">
<path fill="#AFAFAF" d="M26.8,25l9.4-9.4c0.5-0.5,0.5-1.3,0-1.8c-0.5-0.5-1.3-0.5-1.8,0L25,23.2l-9.4-9.4c-0.5-0.5-1.3-0.5-1.8,0
	s-0.5,1.3,0,1.8l9.4,9.4l-9.4,9.4c-0.5,0.5-0.5,1.3,0,1.8c0.2,0.2,0.6,0.4,0.9,0.4c0.3,0,0.6-0.1,0.9-0.4l9.4-9.4l9.4,9.4
	c0.2,0.2,0.6,0.4,0.9,0.4c0.3,0,0.6-0.1,0.9-0.4c0.5-0.5,0.5-1.3,0-1.8L26.8,25z"/>
<circle fill="#F3F3F3" cx="75" cy="25" r="25"/>
<path fill="#AFAFAF" d="M76.8,25l9.4-9.4c0.5-0.5,0.5-1.3,0-1.8s-1.3-0.5-1.8,0L75,23.2l-9.4-9.4c-0.5-0.5-1.3-0.5-1.8,0
	c-0.5,0.5-0.5,1.3,0,1.8l9.4,9.4l-9.4,9.4c-0.5,0.5-0.5,1.3,0,1.8c0.2,0.2,0.6,0.4,0.9,0.4c0.3,0,0.6-0.1,0.9-0.4l9.4-9.4l9.4,9.4
	c0.2,0.2,0.6,0.4,0.9,0.4c0.3,0,0.6-0.1,0.9-0.4c0.5-0.5,0.5-1.3,0-1.8L76.8,25z"/>
</svg>
